<?xml version="1.0" encoding="utf-8"?>
<!-- Generator: Adobe Illustrator 25.2.0, SVG Export Plug-In . SVG Version: 6.00 Build 0)  -->
<svg version="1.1" id="Camada_1" xmlns="http://www.w3.org/2000/svg" xmlns:xlink="http://www.w3.org/1999/xlink" x="0px" y="0px"
	 viewBox="0 0 213.6 199.1" style="enable-background:new 0 0 213.6 199.1;" xml:space="preserve">
<style type="text/css">
	.st0{fill-rule:evenodd;clip-rule:evenodd;fill:#E43F5A;stroke:#E43F5A;stroke-width:2;stroke-miterlimit:10;}
	.st1{fill:#ED4800;}
</style>
<g>
	<path class="st0" d="M80.3,43.9C54.7,39.2,34.6,44.1,26.5,58c-6,10.4-4.3,24.2,4.2,38.9c0.7,1.3,2.3,1.7,3.6,1s1.7-2.3,1-3.6
		c-7.6-13.3-9.1-25.2-4.2-33.7C37.8,49.1,55.7,44.7,79.3,49c1.4,0.3,2.8-0.7,3-2.1C82.6,45.5,81.7,44.1,80.3,43.9L80.3,43.9z
		 M44,114.8c10.3,11.3,23.7,22,39,30.8c37,21.4,76.5,27.1,95.9,13.9c1.2-0.8,1.5-2.4,0.7-3.6c-0.8-1.2-2.4-1.5-3.6-0.7
		c-17.4,11.9-54.8,6.4-90.3-14.1c-14.8-8.6-27.8-18.9-37.8-29.8c-1-1.1-2.6-1.1-3.7-0.2C43,112.1,43,113.7,44,114.8L44,114.8z
		 M172.6,111.6c16.7-19.7,22.5-39.6,14.5-53.5c-5.9-10.2-18.4-15.6-35-15.8c-1.4,0-2.6,1.1-2.7,2.6c0,1.4,1.1,2.6,2.6,2.7
		c15,0.2,25.7,4.8,30.5,13.2c6.7,11.5,1.5,29.2-14,47.5c-0.9,1.1-0.8,2.8,0.3,3.7C170.1,112.9,171.7,112.7,172.6,111.6L172.6,111.6z
		 M129.7,44.7c-15.1,3.2-31.2,9.6-46.6,18.5C44.9,85.3,20,117.8,23.4,141.4c0.2,1.4,1.5,2.4,3,2.2c1.4-0.2,2.4-1.5,2.2-3
		c-3.1-20.9,20.6-51.8,57.1-72.9c15-8.7,30.6-14.8,45.1-17.9c1.4-0.3,2.3-1.7,2-3.1C132.5,45.3,131.1,44.4,129.7,44.7L129.7,44.7z"
		/>
	<path class="st0" d="M67.8,157.8c8.7,24.4,23,39.4,39.1,39.4c11.7,0,22.6-8,31-22.1c0.7-1.2,0.3-2.8-0.9-3.6
		c-1.2-0.7-2.8-0.3-3.6,0.9c-7.6,12.6-16.9,19.5-26.5,19.5c-13.3,0-26.1-13.4-34.2-35.9c-0.5-1.4-2-2.1-3.3-1.6
		C68,154.9,67.3,156.4,67.8,157.8z M147.6,153c4.5-14.5,7-31.1,7-48.5c0-43.4-15.2-80.7-36.8-90.3c-1.3-0.6-2.9,0-3.5,1.3
		s0,2.9,1.3,3.5c19.3,8.6,33.7,44,33.7,85.5c0,16.9-2.3,33-6.7,46.9c-0.4,1.4,0.3,2.8,1.7,3.3C145.7,155.1,147.2,154.4,147.6,153
		L147.6,153z M196.9,150.4c0-6.9-5.6-12.5-12.5-12.5s-12.6,5.6-12.6,12.5c0,7,5.6,12.5,12.5,12.5S196.8,157.3,196.9,150.4
		L196.9,150.4z M191.6,150.4c0,4-3.3,7.3-7.3,7.3s-7.3-3.3-7.3-7.3s3.3-7.3,7.3-7.3C188.4,143.1,191.6,146.4,191.6,150.4z"/>
	<path class="st0" d="M29.3,162.9c6.9,0,12.5-5.6,12.5-12.5s-5.6-12.5-12.5-12.5s-12.5,5.6-12.5,12.5S22.3,162.9,29.3,162.9
		L29.3,162.9z M29.3,157.7c-4,0-7.3-3.3-7.3-7.3s3.3-7.3,7.3-7.3s7.3,3.3,7.3,7.3C36.5,154.4,33.3,157.7,29.3,157.7z M106.9,26.9
		c6.9,0,12.5-5.6,12.5-12.5s-5.6-12.5-12.5-12.5S94.4,7.5,94.4,14.4S100,26.9,106.9,26.9z M106.9,21.7c-4,0-7.3-3.3-7.3-7.3
		s3.3-7.3,7.3-7.3s7.3,3.3,7.3,7.3C114.2,18.4,110.9,21.7,106.9,21.7z"/>
</g>
<g>
	<path class="st1" d="M130.6,111.1c0.8,0.7,1,1.6,0.5,2.6c-0.4,1-1.1,1.4-2.2,1.4h-14.3l7.5,17.8c0.3,0.7,0.3,1.3,0,1.8
		c-0.2,0.6-0.6,1-1.2,1.3l-6.6,2.8c-0.7,0.3-1.3,0.3-1.8,0c-0.6-0.2-1-0.6-1.3-1.2l-7.1-16.8l-11.7,11.6c-0.5,0.5-1,0.7-1.6,0.7
		c-0.3,0-0.6-0.1-0.9-0.2c-1-0.4-1.5-1.2-1.5-2.2V74.6c0-1,0.5-1.8,1.5-2.2c0.3-0.1,0.6-0.2,0.9-0.2c0.7,0,1.2,0.2,1.6,0.7
		L130.6,111.1z"/>
</g>
</svg>
